# 3ds Max Wavefront OBJ Exporter v0.97b - (c)2007 guruware
# File Created: 06.12.2016 23:56:27

mtllib cubicals.mtl

#
# object Box001
#

v  -4.3088 -22.5945 -44.1487
v  4.8985 -22.5945 -44.0398
v  2.4789 -22.5945 65.6082
v  -6.7283 -22.5945 65.4993
v  -4.3088 120.0098 -44.1487
v  -6.7284 120.0098 65.4993
v  2.4789 120.0098 65.6082
v  4.8985 120.0098 -44.0398
# 8 vertices

vn -0.5646 -0.5774 -0.5840
vn 0.5900 -0.5774 -0.5704
vn 0.5646 -0.5774 0.5840
vn -0.5900 -0.5774 0.5704
vn -0.5646 0.5774 -0.5840
vn -0.5900 0.5774 0.5704
vn 0.5646 0.5774 0.5840
vn 0.5900 0.5774 -0.5704
# 8 vertex normals

vt 1.0000 0.0000 0.0000
vt 1.0000 1.0000 0.0000
vt 0.0000 1.0000 0.0000
vt 0.0000 0.0000 0.0000
# 4 texture coords

o Box001
g Box001
usemtl 01___Default
s 2
f 1/1/1 2/2/2 3/3/3 4/4/4 
s 4
f 5/4/5 6/1/6 7/2/7 8/3/8 
s 8
f 1/4/1 4/1/4 6/2/6 5/3/5 
s 16
f 4/4/4 3/1/3 7/2/7 6/3/6 
s 32
f 3/4/3 2/1/2 8/2/8 7/3/7 
s 64
f 2/4/2 1/1/1 5/2/5 8/3/8 
# 6 polygons

#
# object Box002
#

v  92.8499 -22.5945 -43.0000
v  102.0571 -22.5945 -42.8912
v  99.6375 -22.5945 66.7568
v  90.4303 -22.5945 66.6479
v  92.8498 120.0098 -43.0001
v  90.4303 120.0098 66.6479
v  99.6375 120.0098 66.7568
v  102.0571 120.0098 -42.8912
# 8 vertices

vn -0.5646 -0.5774 -0.5840
vn 0.5900 -0.5774 -0.5704
vn 0.5646 -0.5774 0.5840
vn -0.5900 -0.5774 0.5704
vn -0.5646 0.5774 -0.5840
vn -0.5900 0.5774 0.5704
vn 0.5646 0.5774 0.5840
vn 0.5900 0.5774 -0.5704
# 8 vertex normals

vt 1.0000 0.0000 0.0000
vt 1.0000 1.0000 0.0000
vt 0.0000 1.0000 0.0000
vt 0.0000 0.0000 0.0000
# 4 texture coords

o Box002
g Box002
usemtl 01___Default
s 2
f 9/5/9 10/6/10 11/7/11 12/8/12 
s 4
f 13/8/13 14/5/14 15/6/15 16/7/16 
s 8
f 9/8/9 12/5/12 14/6/14 13/7/13 
s 16
f 12/8/12 11/5/11 15/6/15 14/7/14 
s 32
f 11/8/11 10/5/10 16/6/16 15/7/15 
s 64
f 10/8/10 9/5/9 13/6/13 16/7/16 
# 6 polygons

#
# object Box003
#

v  -105.8431 -22.5945 -45.3490
v  -96.6359 -22.5945 -45.2401
v  -99.0555 -22.5945 64.4079
v  -108.2627 -22.5945 64.2990
v  -105.8432 120.0098 -45.3490
v  -108.2627 120.0098 64.2990
v  -99.0555 120.0098 64.4078
v  -96.6359 120.0098 -45.2401
# 8 vertices

vn -0.5646 -0.5774 -0.5840
vn 0.5900 -0.5774 -0.5704
vn 0.5646 -0.5774 0.5840
vn -0.5900 -0.5774 0.5704
vn -0.5646 0.5774 -0.5840
vn -0.5900 0.5774 0.5704
vn 0.5646 0.5774 0.5840
vn 0.5900 0.5774 -0.5704
# 8 vertex normals

vt 1.0000 0.0000 0.0000
vt 1.0000 1.0000 0.0000
vt 0.0000 1.0000 0.0000
vt 0.0000 0.0000 0.0000
# 4 texture coords

o Box003
g Box003
usemtl 01___Default
s 2
f 17/9/17 18/10/18 19/11/19 20/12/20 
s 4
f 21/12/21 22/9/22 23/10/23 24/11/24 
s 8
f 17/12/17 20/9/20 22/10/22 21/11/21 
s 16
f 20/12/20 19/9/19 23/10/23 22/11/22 
s 32
f 19/12/19 18/9/18 24/10/24 23/11/23 
s 64
f 18/12/18 17/9/17 21/10/21 24/11/24 
# 6 polygons

#
# object Box004
#

v  -120.1501 119.9459 64.7310
v  -120.1501 -22.7430 64.7309
v  -83.9809 -22.7430 64.7309
v  -83.9809 119.9459 64.7310
v  -83.9809 -22.7430 55.7168
v  -120.1501 -22.7430 55.7168
v  -120.1501 119.9459 55.7168
v  -83.9809 119.9459 55.7168
# 8 vertices

vn -0.5774 0.5774 0.5774
vn -0.5774 -0.5774 0.5774
vn 0.5774 -0.5774 0.5774
vn 0.5774 0.5774 0.5774
vn 0.5774 -0.5774 -0.5774
vn -0.5774 -0.5774 -0.5774
vn -0.5774 0.5774 -0.5774
vn 0.5774 0.5774 -0.5774
# 8 vertex normals

vt 0.0000 1.0000 0.0000
vt 0.0000 0.0000 0.0000
vt 1.0000 0.0000 0.0000
vt 1.0000 1.0000 0.0000
# 4 texture coords

o Box004
g Box004
usemtl 01___Default
s 2
f 25/13/25 26/14/26 27/15/27 28/16/28 
s 4
f 29/14/29 30/15/30 31/16/31 32/13/32 
s 8
f 27/15/27 26/14/26 30/13/30 29/16/29 
s 16
f 28/15/28 27/14/27 29/13/29 32/16/32 
s 32
f 25/15/25 28/14/28 32/13/32 31/16/31 
s 64
f 26/15/26 25/14/25 31/13/31 30/16/30 
# 6 polygons

#
# object Box005
#

v  -18.9859 119.9459 65.7178
v  -18.9859 -22.7430 65.7178
v  17.1833 -22.7430 65.7178
v  17.1833 119.9459 65.7178
v  17.1833 -22.7430 56.7037
v  -18.9859 -22.7430 56.7037
v  -18.9859 119.9459 56.7037
v  17.1833 119.9459 56.7037
# 8 vertices

vn -0.5774 0.5774 0.5774
vn -0.5774 -0.5774 0.5774
vn 0.5774 -0.5774 0.5774
vn 0.5774 0.5774 0.5774
vn 0.5774 -0.5774 -0.5774
vn -0.5774 -0.5774 -0.5774
vn -0.5774 0.5774 -0.5774
vn 0.5774 0.5774 -0.5774
# 8 vertex normals

vt 0.0000 1.0000 0.0000
vt 0.0000 0.0000 0.0000
vt 1.0000 0.0000 0.0000
vt 1.0000 1.0000 0.0000
# 4 texture coords

o Box005
g Box005
usemtl 01___Default
s 2
f 33/17/33 34/18/34 35/19/35 36/20/36 
s 4
f 37/18/37 38/19/38 39/20/39 40/17/40 
s 8
f 35/19/35 34/18/34 38/17/38 37/20/37 
s 16
f 36/19/36 35/18/35 37/17/37 40/20/40 
s 32
f 33/19/33 36/18/36 40/17/40 39/20/39 
s 64
f 34/19/34 33/18/33 39/17/39 38/20/38 
# 6 polygons

#
# object Box006
#

v  78.6940 119.9459 66.8143
v  78.6940 -22.7430 66.8143
v  114.8632 -22.7430 66.8143
v  114.8632 119.9459 66.8143
v  114.8632 -22.7430 57.8002
v  78.6940 -22.7430 57.8002
v  78.6940 119.9459 57.8002
v  114.8632 119.9459 57.8002
# 8 vertices

vn -0.5774 0.5774 0.5774
vn -0.5774 -0.5774 0.5774
vn 0.5774 -0.5774 0.5774
vn 0.5774 0.5774 0.5774
vn 0.5774 -0.5774 -0.5774
vn -0.5774 -0.5774 -0.5774
vn -0.5774 0.5774 -0.5774
vn 0.5774 0.5774 -0.5774
# 8 vertex normals

vt 0.0000 1.0000 0.0000
vt 0.0000 0.0000 0.0000
vt 1.0000 0.0000 0.0000
vt 1.0000 1.0000 0.0000
# 4 texture coords

o Box006
g Box006
usemtl 01___Default
s 2
f 41/21/41 42/22/42 43/23/43 44/24/44 
s 4
f 45/22/45 46/23/46 47/24/47 48/21/48 
s 8
f 43/23/43 42/22/42 46/21/46 45/24/45 
s 16
f 44/23/44 43/22/43 45/21/45 48/24/48 
s 32
f 41/23/41 44/22/44 48/21/48 47/24/47 
s 64
f 42/23/42 41/22/41 47/21/47 46/24/46 
# 6 polygons

