# 3ds Max Wavefront OBJ Exporter v0.97b - (c)2007 guruware
# File Created: 07.12.2016 00:39:03

mtllib urinal.mtl

#
# object Box001
#

v  -89.4466 49.0412 0.0000
v  -89.4466 10.0426 -0.0000
v  88.2356 10.0426 -0.0000
v  88.2356 49.0412 0.0000
v  88.2356 10.0426 -5.3367
v  -89.4466 10.0426 -5.3367
v  -89.4466 49.0412 -5.3366
v  88.2356 49.0412 -5.3366
# 8 vertices

vn -0.5774 0.5774 0.5774
vn -0.5774 -0.5774 0.5774
vn 0.5774 -0.5774 0.5774
vn 0.5774 0.5774 0.5774
vn 0.5774 -0.5774 -0.5774
vn -0.5774 -0.5774 -0.5774
vn -0.5774 0.5774 -0.5774
vn 0.5774 0.5774 -0.5774
# 8 vertex normals

vt 0.0000 1.0000 0.0000
vt 0.0000 0.0000 0.0000
vt 1.0000 0.0000 0.0000
vt 1.0000 1.0000 0.0000
# 4 texture coords

o Box001
g Box001
usemtl 04___Default
s 2
f 1/1/1 2/2/2 3/3/3 4/4/4 
s 4
f 5/2/5 6/3/6 7/4/7 8/1/8 
s 8
f 3/3/3 2/2/2 6/1/6 5/4/5 
s 16
f 4/3/4 3/2/3 5/1/5 8/4/8 
s 32
f 1/3/1 4/2/4 8/1/8 7/4/7 
s 64
f 2/3/2 1/2/1 7/1/7 6/4/6 
# 6 polygons

#
# object Box002
#

v  -89.6173 6.2387 19.8262
v  -89.6173 6.2387 -5.4278
v  88.3258 6.2387 -5.4278
v  88.3258 6.2387 19.8262
v  -89.6173 10.0123 19.8262
v  88.3258 10.0123 19.8262
v  88.3258 10.0123 -5.4278
v  -89.6173 10.0123 -5.4278
# 8 vertices

vn -0.5774 -0.5774 0.5774
vn -0.5774 -0.5774 -0.5774
vn 0.5774 -0.5774 -0.5774
vn 0.5774 -0.5774 0.5774
vn -0.5774 0.5774 0.5774
vn 0.5774 0.5774 0.5774
vn 0.5774 0.5774 -0.5774
vn -0.5774 0.5774 -0.5774
# 8 vertex normals

vt 1.0000 0.0000 0.0000
vt 1.0000 1.0000 0.0000
vt 0.0000 1.0000 0.0000
vt 0.0000 0.0000 0.0000
# 4 texture coords

o Box002
g Box002
usemtl 04___Default
s 2
f 9/5/9 10/6/10 11/7/11 12/8/12 
s 4
f 13/8/13 14/5/14 15/6/15 16/7/16 
s 8
f 9/8/9 12/5/12 14/6/14 13/7/13 
s 16
f 12/8/12 11/5/11 15/6/15 14/7/14 
s 32
f 11/8/11 10/5/10 16/6/16 15/7/15 
s 64
f 10/8/10 9/5/9 13/6/13 16/7/16 
# 6 polygons

#
# object Box003
#

v  -88.9232 6.7664 5.5667
v  -88.9232 48.8340 -0.3947
v  87.9550 48.8340 -0.3947
v  87.9550 6.7664 5.5667
v  -88.9232 6.8528 6.1764
v  87.9550 6.8528 6.1764
v  87.9550 48.9204 0.2150
v  -88.9232 48.9204 0.2150
# 8 vertices

vn -0.5774 -0.6526 -0.4906
vn -0.5774 0.4906 -0.6526
vn 0.5774 0.4906 -0.6526
vn 0.5774 -0.6526 -0.4906
vn -0.5774 -0.4906 0.6526
vn 0.5774 -0.4906 0.6526
vn 0.5774 0.6526 0.4906
vn -0.5774 0.6526 0.4906
# 8 vertex normals

vt 1.0000 0.0000 0.0000
vt 1.0000 1.0000 0.0000
vt 0.0000 1.0000 0.0000
vt 0.0000 0.0000 0.0000
# 4 texture coords

o Box003
g Box003
usemtl 04___Default
s 2
f 17/9/17 18/10/18 19/11/19 20/12/20 
s 4
f 21/12/21 22/9/22 23/10/23 24/11/24 
s 8
f 17/12/17 20/9/20 22/10/22 21/11/21 
s 16
f 20/12/20 19/9/19 23/10/23 22/11/22 
s 32
f 19/12/19 18/9/18 24/10/24 23/11/23 
s 64
f 18/12/18 17/9/17 21/10/21 24/11/24 
# 6 polygons

#
# object Box004
#

v  88.3788 6.1520 -4.8058
v  88.3788 20.0852 -4.8058
v  88.3788 20.0852 20.0127
v  88.3788 6.1520 20.0127
v  85.5363 6.1520 -4.8058
v  85.5363 6.1520 20.0127
v  85.5363 20.0852 20.0127
v  85.5363 20.0852 -4.8058
# 8 vertices

vn 0.5774 -0.5774 -0.5774
vn 0.5774 0.5774 -0.5774
vn 0.5774 0.5774 0.5774
vn 0.5774 -0.5774 0.5774
vn -0.5774 -0.5774 -0.5774
vn -0.5774 -0.5774 0.5774
vn -0.5774 0.5774 0.5774
vn -0.5774 0.5774 -0.5774
# 8 vertex normals

vt 1.0000 0.0000 0.0000
vt 1.0000 1.0000 0.0000
vt 0.0000 1.0000 0.0000
vt 0.0000 0.0000 0.0000
# 4 texture coords

o Box004
g Box004
usemtl 04___Default
s 2
f 25/13/25 26/14/26 27/15/27 28/16/28 
s 4
f 29/16/29 30/13/30 31/14/31 32/15/32 
s 8
f 25/16/25 28/13/28 30/14/30 29/15/29 
s 16
f 28/16/28 27/13/27 31/14/31 30/15/30 
s 32
f 27/16/27 26/13/26 32/14/32 31/15/31 
s 64
f 26/16/26 25/13/25 29/14/29 32/15/32 
# 6 polygons

#
# object Box005
#

v  -86.9658 6.1520 -4.9594
v  -86.9659 20.0852 -4.9594
v  -86.9659 20.0852 19.8592
v  -86.9659 6.1520 19.8592
v  -89.8084 6.1520 -4.9594
v  -89.8084 6.1520 19.8592
v  -89.8084 20.0852 19.8592
v  -89.8084 20.0852 -4.9594
# 8 vertices

vn 0.5774 -0.5774 -0.5774
vn 0.5774 0.5774 -0.5774
vn 0.5774 0.5774 0.5774
vn 0.5774 -0.5774 0.5774
vn -0.5774 -0.5774 -0.5774
vn -0.5774 -0.5774 0.5774
vn -0.5774 0.5774 0.5774
vn -0.5774 0.5774 -0.5774
# 8 vertex normals

vt 1.0000 0.0000 0.0000
vt 1.0000 1.0000 0.0000
vt 0.0000 1.0000 0.0000
vt 0.0000 0.0000 0.0000
# 4 texture coords

o Box005
g Box005
usemtl 04___Default
s 2
f 33/17/33 34/18/34 35/19/35 36/20/36 
s 4
f 37/20/37 38/17/38 39/18/39 40/19/40 
s 8
f 33/20/33 36/17/36 38/18/38 37/19/37 
s 16
f 36/20/36 35/17/35 39/18/39 38/19/38 
s 32
f 35/20/35 34/17/34 40/18/40 39/19/39 
s 64
f 34/20/34 33/17/33 37/18/37 40/19/40 
# 6 polygons

#
# object Box006
#

v  -89.2772 6.3368 19.1439
v  -89.2772 13.3155 19.1439
v  87.7237 13.3155 19.1439
v  87.7237 6.3368 19.1439
v  -89.2772 6.3368 19.9649
v  87.7237 6.3368 19.9649
v  87.7237 13.3155 19.9649
v  -89.2772 13.3155 19.9649
# 8 vertices

vn -0.5774 -0.5774 -0.5774
vn -0.5774 0.5774 -0.5774
vn 0.5774 0.5774 -0.5774
vn 0.5774 -0.5774 -0.5774
vn -0.5774 -0.5774 0.5774
vn 0.5774 -0.5774 0.5774
vn 0.5774 0.5774 0.5774
vn -0.5774 0.5774 0.5774
# 8 vertex normals

vt 1.0000 0.0000 0.0000
vt 1.0000 1.0000 0.0000
vt 0.0000 1.0000 0.0000
vt 0.0000 0.0000 0.0000
# 4 texture coords

o Box006
g Box006
usemtl 04___Default
s 2
f 41/21/41 42/22/42 43/23/43 44/24/44 
s 4
f 45/24/45 46/21/46 47/22/47 48/23/48 
s 8
f 41/24/41 44/21/44 46/22/46 45/23/45 
s 16
f 44/24/44 43/21/43 47/22/47 46/23/46 
s 32
f 43/24/43 42/21/42 48/22/48 47/23/47 
s 64
f 42/24/42 41/21/41 45/22/45 48/23/48 
# 6 polygons

#
# object Box007
#

v  88.1283 16.4201 0.0823
v  88.1283 45.8638 -3.6327
v  88.1283 46.5678 0.7778
v  88.1283 17.1240 4.4927
v  87.5598 16.4201 0.0823
v  87.5598 17.1240 4.4927
v  87.5598 46.5678 0.7778
v  87.5598 45.8638 -3.6327
# 8 vertices

vn 0.5774 -0.6638 -0.4979
vn 0.5774 0.4818 -0.6424
vn 0.5774 0.6638 0.4979
vn 0.5774 -0.4818 0.6424
vn -0.5774 -0.6638 -0.4979
vn -0.5774 -0.4818 0.6424
vn -0.5774 0.6638 0.4979
vn -0.5774 0.4818 -0.6424
# 8 vertex normals

vt 1.0000 0.0000 0.0000
vt 1.0000 1.0000 0.0000
vt 0.0000 1.0000 0.0000
vt 0.0000 0.0000 0.0000
# 4 texture coords

o Box007
g Box007
usemtl 04___Default
s 2
f 49/25/49 50/26/50 51/27/51 52/28/52 
s 4
f 53/28/53 54/25/54 55/26/55 56/27/56 
s 8
f 49/28/49 52/25/52 54/26/54 53/27/53 
s 16
f 52/28/52 51/25/51 55/26/55 54/27/54 
s 32
f 51/28/51 50/25/50 56/26/56 55/27/55 
s 64
f 50/28/50 49/25/49 53/26/53 56/27/56 
# 6 polygons

#
# object Box008
#

v  -88.6763 16.4201 0.0823
v  -88.6763 45.8638 -3.6327
v  -88.6763 46.5678 0.7778
v  -88.6763 17.1240 4.4927
v  -89.2448 16.4201 0.0823
v  -89.2448 17.1240 4.4927
v  -89.2448 46.5678 0.7778
v  -89.2448 45.8638 -3.6327
# 8 vertices

vn 0.5774 -0.6638 -0.4979
vn 0.5774 0.4818 -0.6424
vn 0.5774 0.6638 0.4979
vn 0.5774 -0.4818 0.6424
vn -0.5774 -0.6638 -0.4979
vn -0.5774 -0.4818 0.6424
vn -0.5774 0.6638 0.4979
vn -0.5774 0.4818 -0.6424
# 8 vertex normals

vt 1.0000 0.0000 0.0000
vt 1.0000 1.0000 0.0000
vt 0.0000 1.0000 0.0000
vt 0.0000 0.0000 0.0000
# 4 texture coords

o Box008
g Box008
usemtl 04___Default
s 2
f 57/29/57 58/30/58 59/31/59 60/32/60 
s 4
f 61/32/61 62/29/62 63/30/63 64/31/64 
s 8
f 57/32/57 60/29/60 62/30/62 61/31/61 
s 16
f 60/32/60 59/29/59 63/30/63 62/31/62 
s 32
f 59/32/59 58/29/58 64/30/64 63/31/63 
s 64
f 58/32/58 57/29/57 61/30/61 64/31/64 
# 6 polygons

